<?xml version="1.0" encoding="UTF-8" standalone="no"?>
<!DOCTYPE svg PUBLIC "-//W3C//DTD SVG 1.1//EN"
 "http://www.w3.org/Graphics/SVG/1.1/DTD/svg11.dtd">
<!-- Generated by graphviz version 2.43.0 (0)
 -->
<!-- Title: model Pages: 1 -->
<svg width="204pt" height="732pt"
 viewBox="0.00 0.00 204.00 732.00" xmlns="http://www.w3.org/2000/svg" xmlns:xlink="http://www.w3.org/1999/xlink">
<g id="graph0" class="graph" transform="scale(1 1) rotate(0) translate(4 728)">
<title>model</title>
<polygon fill="white" stroke="transparent" points="-4,4 -4,-728 200,-728 200,4 -4,4"/>
<!-- 0 -->
<g id="node1" class="node">
<title>0</title>
<polygon fill="lightyellow" stroke="transparent" points="175,-724 21,-724 21,-692 175,-692 175,-724"/>
<polygon fill="none" stroke="black" points="21,-692 21,-724 91,-724 91,-692 21,-692"/>
<text text-anchor="start" x="26" y="-711" font-family="Linux libertine" font-size="10.00">input</text>
<polygon fill="none" stroke="black" points="91,-692 91,-724 175,-724 175,-692 91,-692"/>
<text text-anchor="start" x="96" y="-705.5" font-family="Linux libertine" font-size="10.00">(1, 1, H, W)</text>
</g>
<!-- 1 -->
<g id="node2" class="node">
<title>1</title>
<polygon fill="#c1ffc1" stroke="transparent" points="192,-656 4,-656 4,-614 192,-614 192,-656"/>
<polygon fill="none" stroke="black" points="4,-614 4,-656 51,-656 51,-614 4,-614"/>
<text text-anchor="start" x="9" y="-638" font-family="Linux libertine" font-size="10.00">Conv2d</text>
<text text-anchor="start" x="9" y="-627" font-family="Linux libertine" font-size="10.00">Size: 5</text>
<polygon fill="none" stroke="black" points="51,-635 51,-656 99,-656 99,-635 51,-635"/>
<text text-anchor="start" x="61" y="-643" font-family="Linux libertine" font-size="10.00">input:</text>
<polygon fill="none" stroke="black" points="99,-635 99,-656 192,-656 192,-635 99,-635"/>
<text text-anchor="start" x="107" y="-643" font-family="Linux libertine" font-size="10.00">(1, 1, H, W) </text>
<polygon fill="none" stroke="black" points="51,-614 51,-635 99,-635 99,-614 51,-614"/>
<text text-anchor="start" x="56" y="-622" font-family="Linux libertine" font-size="10.00">output: </text>
<polygon fill="none" stroke="black" points="99,-614 99,-635 192,-635 192,-614 99,-614"/>
<text text-anchor="start" x="104" y="-622" font-family="Linux libertine" font-size="10.00">(1, 64, H, W) </text>
</g>
<!-- 0&#45;&gt;1 -->
<g id="edge1" class="edge">
<title>0&#45;&gt;1</title>
<path fill="none" stroke="black" d="M98,-691.94C98,-684.45 98,-675.12 98,-666.24"/>
<polygon fill="black" stroke="black" points="101.5,-666.16 98,-656.16 94.5,-666.16 101.5,-666.16"/>
</g>
<!-- 2 -->
<g id="node3" class="node">
<title>2</title>
<polygon fill="#c1ffc1" stroke="transparent" points="192,-578 4,-578 4,-536 192,-536 192,-578"/>
<polygon fill="none" stroke="black" points="4,-536 4,-578 51,-578 51,-536 4,-536"/>
<text text-anchor="start" x="14.5" y="-560" font-family="Linux libertine" font-size="10.00">ReLU</text>
<polygon fill="none" stroke="black" points="51,-557 51,-578 99,-578 99,-557 51,-557"/>
<text text-anchor="start" x="61" y="-565" font-family="Linux libertine" font-size="10.00">input:</text>
<polygon fill="none" stroke="black" points="99,-557 99,-578 192,-578 192,-557 99,-557"/>
<text text-anchor="start" x="104" y="-565" font-family="Linux libertine" font-size="10.00">(1, 64, H, W) </text>
<polygon fill="none" stroke="black" points="51,-536 51,-557 99,-557 99,-536 51,-536"/>
<text text-anchor="start" x="56" y="-544" font-family="Linux libertine" font-size="10.00">output: </text>
<polygon fill="none" stroke="black" points="99,-536 99,-557 192,-557 192,-536 99,-536"/>
<text text-anchor="start" x="104" y="-544" font-family="Linux libertine" font-size="10.00">(1, 64, H, W) </text>
</g>
<!-- 1&#45;&gt;2 -->
<g id="edge2" class="edge">
<title>1&#45;&gt;2</title>
<path fill="none" stroke="black" d="M98,-613.63C98,-605.82 98,-596.73 98,-588.18"/>
<polygon fill="black" stroke="black" points="101.5,-588.16 98,-578.16 94.5,-588.16 101.5,-588.16"/>
</g>
<!-- 3 -->
<g id="node4" class="node">
<title>3</title>
<polygon fill="#c1ffc1" stroke="transparent" points="192,-500 4,-500 4,-458 192,-458 192,-500"/>
<polygon fill="none" stroke="black" points="4,-458 4,-500 51,-500 51,-458 4,-458"/>
<text text-anchor="start" x="9" y="-482" font-family="Linux libertine" font-size="10.00">Conv2d</text>
<text text-anchor="start" x="9" y="-471" font-family="Linux libertine" font-size="10.00">Size: 3</text>
<polygon fill="none" stroke="black" points="51,-479 51,-500 99,-500 99,-479 51,-479"/>
<text text-anchor="start" x="61" y="-487" font-family="Linux libertine" font-size="10.00">input:</text>
<polygon fill="none" stroke="black" points="99,-479 99,-500 192,-500 192,-479 99,-479"/>
<text text-anchor="start" x="104" y="-487" font-family="Linux libertine" font-size="10.00">(1, 64, H, W) </text>
<polygon fill="none" stroke="black" points="51,-458 51,-479 99,-479 99,-458 51,-458"/>
<text text-anchor="start" x="56" y="-466" font-family="Linux libertine" font-size="10.00">output: </text>
<polygon fill="none" stroke="black" points="99,-458 99,-479 192,-479 192,-458 99,-458"/>
<text text-anchor="start" x="104" y="-466" font-family="Linux libertine" font-size="10.00">(1, 64, H, W) </text>
</g>
<!-- 2&#45;&gt;3 -->
<g id="edge3" class="edge">
<title>2&#45;&gt;3</title>
<path fill="none" stroke="black" d="M98,-535.63C98,-527.82 98,-518.73 98,-510.18"/>
<polygon fill="black" stroke="black" points="101.5,-510.16 98,-500.16 94.5,-510.16 101.5,-510.16"/>
</g>
<!-- 4 -->
<g id="node5" class="node">
<title>4</title>
<polygon fill="#c1ffc1" stroke="transparent" points="192,-422 4,-422 4,-380 192,-380 192,-422"/>
<polygon fill="none" stroke="black" points="4,-380 4,-422 51,-422 51,-380 4,-380"/>
<text text-anchor="start" x="14.5" y="-404" font-family="Linux libertine" font-size="10.00">ReLU</text>
<polygon fill="none" stroke="black" points="51,-401 51,-422 99,-422 99,-401 51,-401"/>
<text text-anchor="start" x="61" y="-409" font-family="Linux libertine" font-size="10.00">input:</text>
<polygon fill="none" stroke="black" points="99,-401 99,-422 192,-422 192,-401 99,-401"/>
<text text-anchor="start" x="104" y="-409" font-family="Linux libertine" font-size="10.00">(1, 64, H, W) </text>
<polygon fill="none" stroke="black" points="51,-380 51,-401 99,-401 99,-380 51,-380"/>
<text text-anchor="start" x="56" y="-388" font-family="Linux libertine" font-size="10.00">output: </text>
<polygon fill="none" stroke="black" points="99,-380 99,-401 192,-401 192,-380 99,-380"/>
<text text-anchor="start" x="104" y="-388" font-family="Linux libertine" font-size="10.00">(1, 64, H, W) </text>
</g>
<!-- 3&#45;&gt;4 -->
<g id="edge4" class="edge">
<title>3&#45;&gt;4</title>
<path fill="none" stroke="black" d="M98,-457.63C98,-449.82 98,-440.73 98,-432.18"/>
<polygon fill="black" stroke="black" points="101.5,-432.16 98,-422.16 94.5,-432.16 101.5,-432.16"/>
</g>
<!-- 5 -->
<g id="node6" class="node">
<title>5</title>
<polygon fill="#c1ffc1" stroke="transparent" points="192,-344 4,-344 4,-302 192,-302 192,-344"/>
<polygon fill="none" stroke="black" points="4,-302 4,-344 51,-344 51,-302 4,-302"/>
<text text-anchor="start" x="9" y="-326" font-family="Linux libertine" font-size="10.00">Conv2d</text>
<text text-anchor="start" x="9" y="-315" font-family="Linux libertine" font-size="10.00">Size: 3</text>
<polygon fill="none" stroke="black" points="51,-323 51,-344 99,-344 99,-323 51,-323"/>
<text text-anchor="start" x="61" y="-331" font-family="Linux libertine" font-size="10.00">input:</text>
<polygon fill="none" stroke="black" points="99,-323 99,-344 192,-344 192,-323 99,-323"/>
<text text-anchor="start" x="104" y="-331" font-family="Linux libertine" font-size="10.00">(1, 64, H, W) </text>
<polygon fill="none" stroke="black" points="51,-302 51,-323 99,-323 99,-302 51,-302"/>
<text text-anchor="start" x="56" y="-310" font-family="Linux libertine" font-size="10.00">output: </text>
<polygon fill="none" stroke="black" points="99,-302 99,-323 192,-323 192,-302 99,-302"/>
<text text-anchor="start" x="104" y="-310" font-family="Linux libertine" font-size="10.00">(1, 32, H, W) </text>
</g>
<!-- 4&#45;&gt;5 -->
<g id="edge5" class="edge">
<title>4&#45;&gt;5</title>
<path fill="none" stroke="black" d="M98,-379.63C98,-371.82 98,-362.73 98,-354.18"/>
<polygon fill="black" stroke="black" points="101.5,-354.16 98,-344.16 94.5,-354.16 101.5,-354.16"/>
</g>
<!-- 6 -->
<g id="node7" class="node">
<title>6</title>
<polygon fill="#c1ffc1" stroke="transparent" points="192,-266 4,-266 4,-224 192,-224 192,-266"/>
<polygon fill="none" stroke="black" points="4,-224 4,-266 51,-266 51,-224 4,-224"/>
<text text-anchor="start" x="14.5" y="-248" font-family="Linux libertine" font-size="10.00">ReLU</text>
<polygon fill="none" stroke="black" points="51,-245 51,-266 99,-266 99,-245 51,-245"/>
<text text-anchor="start" x="61" y="-253" font-family="Linux libertine" font-size="10.00">input:</text>
<polygon fill="none" stroke="black" points="99,-245 99,-266 192,-266 192,-245 99,-245"/>
<text text-anchor="start" x="104" y="-253" font-family="Linux libertine" font-size="10.00">(1, 32, H, W) </text>
<polygon fill="none" stroke="black" points="51,-224 51,-245 99,-245 99,-224 51,-224"/>
<text text-anchor="start" x="56" y="-232" font-family="Linux libertine" font-size="10.00">output: </text>
<polygon fill="none" stroke="black" points="99,-224 99,-245 192,-245 192,-224 99,-224"/>
<text text-anchor="start" x="104" y="-232" font-family="Linux libertine" font-size="10.00">(1, 32, H, W) </text>
</g>
<!-- 5&#45;&gt;6 -->
<g id="edge6" class="edge">
<title>5&#45;&gt;6</title>
<path fill="none" stroke="black" d="M98,-301.63C98,-293.82 98,-284.73 98,-276.18"/>
<polygon fill="black" stroke="black" points="101.5,-276.16 98,-266.16 94.5,-276.16 101.5,-276.16"/>
</g>
<!-- 7 -->
<g id="node8" class="node">
<title>7</title>
<polygon fill="#c1ffc1" stroke="transparent" points="192,-188 4,-188 4,-146 192,-146 192,-188"/>
<polygon fill="none" stroke="black" points="4,-146 4,-188 51,-188 51,-146 4,-146"/>
<text text-anchor="start" x="9" y="-170" font-family="Linux libertine" font-size="10.00">Conv2d</text>
<text text-anchor="start" x="9" y="-159" font-family="Linux libertine" font-size="10.00">Size: 3</text>
<polygon fill="none" stroke="black" points="51,-167 51,-188 99,-188 99,-167 51,-167"/>
<text text-anchor="start" x="61" y="-175" font-family="Linux libertine" font-size="10.00">input:</text>
<polygon fill="none" stroke="black" points="99,-167 99,-188 192,-188 192,-167 99,-167"/>
<text text-anchor="start" x="104" y="-175" font-family="Linux libertine" font-size="10.00">(1, 32, H, W) </text>
<polygon fill="none" stroke="black" points="51,-146 51,-167 99,-167 99,-146 51,-146"/>
<text text-anchor="start" x="56" y="-154" font-family="Linux libertine" font-size="10.00">output: </text>
<polygon fill="none" stroke="black" points="99,-146 99,-167 192,-167 192,-146 99,-146"/>
<text text-anchor="start" x="107" y="-154" font-family="Linux libertine" font-size="10.00">(1, 4, H, W) </text>
</g>
<!-- 6&#45;&gt;7 -->
<g id="edge7" class="edge">
<title>6&#45;&gt;7</title>
<path fill="none" stroke="black" d="M98,-223.63C98,-215.82 98,-206.73 98,-198.18"/>
<polygon fill="black" stroke="black" points="101.5,-198.16 98,-188.16 94.5,-198.16 101.5,-198.16"/>
</g>
<!-- 8 -->
<g id="node9" class="node">
<title>8</title>
<polygon fill="#c1ffc1" stroke="transparent" points="196,-110 0,-110 0,-68 196,-68 196,-110"/>
<polygon fill="none" stroke="black" points="0,-68 0,-110 61,-110 61,-68 0,-68"/>
<text text-anchor="start" x="5" y="-92" font-family="Linux libertine" font-size="10.00">PixelShuffle</text>
<polygon fill="none" stroke="black" points="61,-89 61,-110 109,-110 109,-89 61,-89"/>
<text text-anchor="start" x="71" y="-97" font-family="Linux libertine" font-size="10.00">input:</text>
<polygon fill="none" stroke="black" points="109,-89 109,-110 196,-110 196,-89 109,-89"/>
<text text-anchor="start" x="114" y="-97" font-family="Linux libertine" font-size="10.00">(1, 4, H, W) </text>
<polygon fill="none" stroke="black" points="61,-68 61,-89 109,-89 109,-68 61,-68"/>
<text text-anchor="start" x="66" y="-76" font-family="Linux libertine" font-size="10.00">output: </text>
<polygon fill="none" stroke="black" points="109,-68 109,-89 196,-89 196,-68 109,-68"/>
<text text-anchor="start" x="114" y="-76" font-family="Linux libertine" font-size="10.00">(1, 1, H * 2, W * 2) </text>
</g>
<!-- 7&#45;&gt;8 -->
<g id="edge8" class="edge">
<title>7&#45;&gt;8</title>
<path fill="none" stroke="black" d="M98,-145.63C98,-137.82 98,-128.73 98,-120.18"/>
<polygon fill="black" stroke="black" points="101.5,-120.16 98,-110.16 94.5,-120.16 101.5,-120.16"/>
</g>
<!-- 9 -->
<g id="node10" class="node">
<title>9</title>
<polygon fill="lightyellow" stroke="transparent" points="178.5,-32 17.5,-32 17.5,0 178.5,0 178.5,-32"/>
<polygon fill="none" stroke="black" points="18,0 18,-32 95,-32 95,0 18,0"/>
<text text-anchor="start" x="23" y="-19" font-family="Linux libertine" font-size="10.00">output</text>
<polygon fill="none" stroke="black" points="95,0 95,-32 179,-32 179,0 95,0"/>
<text text-anchor="start" x="100" y="-13.5" font-family="Linux libertine" font-size="10.00">(1, 1, H * 2, W * 2)</text>
</g>
<!-- 8&#45;&gt;9 -->
<g id="edge9" class="edge">
<title>8&#45;&gt;9</title>
<path fill="none" stroke="black" d="M98,-67.84C98,-59.89 98,-50.66 98,-42.26"/>
<polygon fill="black" stroke="black" points="101.5,-42.24 98,-32.24 94.5,-42.24 101.5,-42.24"/>
</g>
</g>
</svg>
